<mxfile host="app.diagrams.net" modified="2022-08-23T18:56:51.021Z" agent="5.0 (Windows NT 10.0; Win64; x64) AppleWebKit/537.36 (KHTML, like Gecko) Chrome/104.0.0.0 Safari/537.36" etag="XoOrg0EyaPwN57-iYvZc" version="20.2.3" type="github">
  <diagram id="-JeUMONWJu-J6zXToi6y" name="Page-1">
    <mxGraphModel dx="1420" dy="1579" grid="1" gridSize="10" guides="1" tooltips="1" connect="1" arrows="1" fold="1" page="1" pageScale="1" pageWidth="1169" pageHeight="827" math="0" shadow="0">
      <root>
        <mxCell id="0" />
        <mxCell id="1" parent="0" />
        <mxCell id="PUIkpn1EFsI0aQIMFj-C-135" value="" style="group;fillColor=#FFE599;strokeColor=#001DBC;fontColor=#ffffff;gradientColor=none;container=0;" parent="1" vertex="1" connectable="0">
          <mxGeometry x="329.51" y="-82.56" width="370.49" height="302.56" as="geometry" />
        </mxCell>
        <mxCell id="PUIkpn1EFsI0aQIMFj-C-105" value="" style="rounded=0;whiteSpace=wrap;html=1;fillColor=#D4E1F5;" parent="1" vertex="1">
          <mxGeometry x="50" y="480" width="150" height="341" as="geometry" />
        </mxCell>
        <mxCell id="PUIkpn1EFsI0aQIMFj-C-1" value="" style="shape=cylinder3;whiteSpace=wrap;html=1;boundedLbl=1;backgroundOutline=1;size=15;fillColor=#7EA6E0;" parent="1" vertex="1">
          <mxGeometry x="960" y="606" width="190" height="200" as="geometry" />
        </mxCell>
        <mxCell id="KXqegEyoODrQ_h53kKNx-49" style="edgeStyle=orthogonalEdgeStyle;rounded=0;orthogonalLoop=1;jettySize=auto;html=1;exitX=0;exitY=0.25;exitDx=0;exitDy=0;strokeColor=#000000;strokeWidth=1;" parent="1" source="PUIkpn1EFsI0aQIMFj-C-2" edge="1">
          <mxGeometry relative="1" as="geometry">
            <mxPoint x="370" y="220" as="targetPoint" />
          </mxGeometry>
        </mxCell>
        <mxCell id="PUIkpn1EFsI0aQIMFj-C-2" value="water pump 5v" style="shape=hexagon;perimeter=hexagonPerimeter2;whiteSpace=wrap;html=1;fixedSize=1;fillColor=#0050ef;fontColor=#ffffff;strokeColor=#001DBC;" parent="1" vertex="1">
          <mxGeometry x="1005" y="736" width="100" height="60" as="geometry" />
        </mxCell>
        <mxCell id="KXqegEyoODrQ_h53kKNx-46" style="edgeStyle=orthogonalEdgeStyle;rounded=0;orthogonalLoop=1;jettySize=auto;html=1;exitX=0;exitY=0;exitDx=0;exitDy=0;strokeColor=#000000;strokeWidth=1;" parent="1" source="PUIkpn1EFsI0aQIMFj-C-10" edge="1">
          <mxGeometry relative="1" as="geometry">
            <mxPoint x="660" y="220" as="targetPoint" />
            <Array as="points">
              <mxPoint x="709" y="380" />
              <mxPoint x="680" y="380" />
              <mxPoint x="680" y="310" />
              <mxPoint x="660" y="310" />
            </Array>
          </mxGeometry>
        </mxCell>
        <mxCell id="PUIkpn1EFsI0aQIMFj-C-10" value="solenoid &lt;br&gt;valve 12v" style="ellipse;whiteSpace=wrap;html=1;fillColor=#66FFFF;" parent="1" vertex="1">
          <mxGeometry x="700" y="414" width="60" height="37" as="geometry" />
        </mxCell>
        <mxCell id="KXqegEyoODrQ_h53kKNx-50" style="edgeStyle=orthogonalEdgeStyle;rounded=0;orthogonalLoop=1;jettySize=auto;html=1;exitX=1;exitY=0;exitDx=0;exitDy=0;strokeColor=#FF0000;strokeWidth=1;entryX=1;entryY=0;entryDx=0;entryDy=0;" parent="1" target="PUIkpn1EFsI0aQIMFj-C-21" edge="1">
          <mxGeometry relative="1" as="geometry">
            <mxPoint x="680" y="220" as="sourcePoint" />
            <Array as="points">
              <mxPoint x="680" y="300" />
              <mxPoint x="320" y="300" />
              <mxPoint x="320" y="581" />
            </Array>
          </mxGeometry>
        </mxCell>
        <mxCell id="PUIkpn1EFsI0aQIMFj-C-21" value="relay 1" style="rhombus;whiteSpace=wrap;html=1;" parent="1" vertex="1">
          <mxGeometry x="100" y="571" width="50" height="40" as="geometry" />
        </mxCell>
        <mxCell id="0tfDMwp1xF6EGkPO3yS6-90" style="edgeStyle=orthogonalEdgeStyle;rounded=0;orthogonalLoop=1;jettySize=auto;html=1;exitX=1;exitY=1;exitDx=0;exitDy=0;entryX=1;entryY=0;entryDx=0;entryDy=0;strokeColor=#FF0000;" parent="1" source="PUIkpn1EFsI0aQIMFj-C-22" target="PUIkpn1EFsI0aQIMFj-C-166" edge="1">
          <mxGeometry relative="1" as="geometry">
            <Array as="points">
              <mxPoint x="430" y="651" />
              <mxPoint x="430" y="710" />
              <mxPoint x="790" y="710" />
              <mxPoint x="790" y="610" />
              <mxPoint x="752" y="610" />
            </Array>
          </mxGeometry>
        </mxCell>
        <mxCell id="KXqegEyoODrQ_h53kKNx-51" style="edgeStyle=orthogonalEdgeStyle;rounded=0;orthogonalLoop=1;jettySize=auto;html=1;exitX=1;exitY=0;exitDx=0;exitDy=0;strokeColor=#FF0000;strokeWidth=1;entryX=1;entryY=0;entryDx=0;entryDy=0;" parent="1" target="PUIkpn1EFsI0aQIMFj-C-22" edge="1">
          <mxGeometry relative="1" as="geometry">
            <mxPoint x="680" y="220" as="sourcePoint" />
            <Array as="points">
              <mxPoint x="680" y="300" />
              <mxPoint x="320" y="300" />
              <mxPoint x="320" y="631" />
            </Array>
          </mxGeometry>
        </mxCell>
        <mxCell id="PUIkpn1EFsI0aQIMFj-C-22" value="relay 2" style="rhombus;whiteSpace=wrap;html=1;" parent="1" vertex="1">
          <mxGeometry x="100" y="621" width="50" height="40" as="geometry" />
        </mxCell>
        <mxCell id="0tfDMwp1xF6EGkPO3yS6-91" style="edgeStyle=orthogonalEdgeStyle;rounded=0;orthogonalLoop=1;jettySize=auto;html=1;exitX=1;exitY=1;exitDx=0;exitDy=0;entryX=1;entryY=0;entryDx=0;entryDy=0;strokeColor=#FF0000;" parent="1" source="PUIkpn1EFsI0aQIMFj-C-23" target="PUIkpn1EFsI0aQIMFj-C-165" edge="1">
          <mxGeometry relative="1" as="geometry">
            <Array as="points">
              <mxPoint x="430" y="701" />
              <mxPoint x="430" y="710" />
              <mxPoint x="790" y="710" />
              <mxPoint x="790" y="490" />
              <mxPoint x="751" y="490" />
            </Array>
          </mxGeometry>
        </mxCell>
        <mxCell id="KXqegEyoODrQ_h53kKNx-52" style="edgeStyle=orthogonalEdgeStyle;rounded=0;orthogonalLoop=1;jettySize=auto;html=1;exitX=1;exitY=0;exitDx=0;exitDy=0;strokeColor=#FF0000;strokeWidth=1;entryX=1;entryY=0;entryDx=0;entryDy=0;" parent="1" target="PUIkpn1EFsI0aQIMFj-C-23" edge="1">
          <mxGeometry relative="1" as="geometry">
            <mxPoint x="680" y="210" as="sourcePoint" />
            <Array as="points">
              <mxPoint x="680" y="300" />
              <mxPoint x="320" y="300" />
              <mxPoint x="320" y="681" />
            </Array>
          </mxGeometry>
        </mxCell>
        <mxCell id="PUIkpn1EFsI0aQIMFj-C-23" value="relay 3" style="rhombus;whiteSpace=wrap;html=1;" parent="1" vertex="1">
          <mxGeometry x="100" y="671" width="50" height="40" as="geometry" />
        </mxCell>
        <mxCell id="0tfDMwp1xF6EGkPO3yS6-92" style="edgeStyle=orthogonalEdgeStyle;rounded=0;orthogonalLoop=1;jettySize=auto;html=1;exitX=1;exitY=1;exitDx=0;exitDy=0;entryX=1;entryY=0;entryDx=0;entryDy=0;strokeColor=#FF0000;" parent="1" source="PUIkpn1EFsI0aQIMFj-C-21" target="PUIkpn1EFsI0aQIMFj-C-10" edge="1">
          <mxGeometry relative="1" as="geometry">
            <Array as="points">
              <mxPoint x="430" y="601" />
              <mxPoint x="430" y="710" />
              <mxPoint x="790" y="710" />
              <mxPoint x="790" y="380" />
              <mxPoint x="752" y="380" />
            </Array>
          </mxGeometry>
        </mxCell>
        <mxCell id="0tfDMwp1xF6EGkPO3yS6-94" style="edgeStyle=orthogonalEdgeStyle;rounded=0;orthogonalLoop=1;jettySize=auto;html=1;exitX=1;exitY=1;exitDx=0;exitDy=0;entryX=0.14;entryY=0.867;entryDx=0;entryDy=0;strokeColor=#FF0080;entryPerimeter=0;" parent="1" source="PUIkpn1EFsI0aQIMFj-C-24" target="PUIkpn1EFsI0aQIMFj-C-2" edge="1">
          <mxGeometry relative="1" as="geometry">
            <Array as="points">
              <mxPoint x="320" y="756" />
              <mxPoint x="320" y="790" />
              <mxPoint x="1013" y="790" />
              <mxPoint x="1013" y="788" />
            </Array>
          </mxGeometry>
        </mxCell>
        <mxCell id="KXqegEyoODrQ_h53kKNx-54" style="edgeStyle=orthogonalEdgeStyle;rounded=0;orthogonalLoop=1;jettySize=auto;html=1;exitX=1;exitY=0;exitDx=0;exitDy=0;strokeColor=#FF0080;strokeWidth=1;entryX=1;entryY=0;entryDx=0;entryDy=0;" parent="1" target="PUIkpn1EFsI0aQIMFj-C-24" edge="1">
          <mxGeometry relative="1" as="geometry">
            <mxPoint x="350" y="220" as="sourcePoint" />
            <Array as="points">
              <mxPoint x="350" y="190" />
              <mxPoint x="290" y="190" />
              <mxPoint x="290" y="730" />
              <mxPoint x="137" y="730" />
            </Array>
          </mxGeometry>
        </mxCell>
        <mxCell id="PUIkpn1EFsI0aQIMFj-C-24" value="relay 4" style="rhombus;whiteSpace=wrap;html=1;" parent="1" vertex="1">
          <mxGeometry x="100" y="726" width="50" height="40" as="geometry" />
        </mxCell>
        <mxCell id="PUIkpn1EFsI0aQIMFj-C-32" value="plant" style="shape=cylinder3;whiteSpace=wrap;html=1;boundedLbl=1;backgroundOutline=1;size=15;fillColor=#CC6600;" parent="1" vertex="1">
          <mxGeometry x="590" y="384" width="60" height="80" as="geometry" />
        </mxCell>
        <mxCell id="KXqegEyoODrQ_h53kKNx-58" style="edgeStyle=orthogonalEdgeStyle;rounded=0;orthogonalLoop=1;jettySize=auto;html=1;exitX=0;exitY=0.75;exitDx=0;exitDy=0;strokeColor=#FF0080;strokeWidth=1;entryX=0;entryY=0.75;entryDx=0;entryDy=0;" parent="1" target="PUIkpn1EFsI0aQIMFj-C-33" edge="1">
          <mxGeometry relative="1" as="geometry">
            <mxPoint x="350" y="210" as="sourcePoint" />
            <Array as="points">
              <mxPoint x="350" y="360" />
              <mxPoint x="597" y="360" />
            </Array>
            <mxPoint x="550" y="370" as="targetPoint" />
          </mxGeometry>
        </mxCell>
        <mxCell id="KXqegEyoODrQ_h53kKNx-61" style="edgeStyle=orthogonalEdgeStyle;rounded=0;orthogonalLoop=1;jettySize=auto;html=1;exitX=0.5;exitY=1;exitDx=0;exitDy=0;strokeColor=#000000;strokeWidth=1;" parent="1" source="PUIkpn1EFsI0aQIMFj-C-33" edge="1">
          <mxGeometry relative="1" as="geometry">
            <mxPoint x="370" y="190" as="targetPoint" />
            <Array as="points">
              <mxPoint x="440" y="386" />
              <mxPoint x="440" y="190" />
            </Array>
          </mxGeometry>
        </mxCell>
        <mxCell id="PUIkpn1EFsI0aQIMFj-C-33" value="sensor&lt;br&gt;5v" style="triangle;whiteSpace=wrap;html=1;rotation=90;horizontal=0;fillColor=#67AB9F;" parent="1" vertex="1">
          <mxGeometry x="602.5" y="340" width="35" height="91.25" as="geometry" />
        </mxCell>
        <mxCell id="PUIkpn1EFsI0aQIMFj-C-42" value="plant" style="shape=cylinder3;whiteSpace=wrap;html=1;boundedLbl=1;backgroundOutline=1;size=15;fillColor=#CC6600;" parent="1" vertex="1">
          <mxGeometry x="590" y="491" width="60" height="80" as="geometry" />
        </mxCell>
        <mxCell id="KXqegEyoODrQ_h53kKNx-59" style="edgeStyle=orthogonalEdgeStyle;rounded=0;orthogonalLoop=1;jettySize=auto;html=1;exitX=0;exitY=0.75;exitDx=0;exitDy=0;strokeColor=#FF0080;strokeWidth=1;entryX=0;entryY=0.75;entryDx=0;entryDy=0;" parent="1" target="PUIkpn1EFsI0aQIMFj-C-43" edge="1">
          <mxGeometry relative="1" as="geometry">
            <mxPoint x="350" y="220" as="sourcePoint" />
            <Array as="points">
              <mxPoint x="350" y="470" />
              <mxPoint x="597" y="470" />
            </Array>
          </mxGeometry>
        </mxCell>
        <mxCell id="KXqegEyoODrQ_h53kKNx-62" style="edgeStyle=orthogonalEdgeStyle;rounded=0;orthogonalLoop=1;jettySize=auto;html=1;exitX=0.5;exitY=1;exitDx=0;exitDy=0;strokeColor=#000000;strokeWidth=1;" parent="1" source="PUIkpn1EFsI0aQIMFj-C-43" edge="1">
          <mxGeometry relative="1" as="geometry">
            <mxPoint x="370" y="190" as="targetPoint" />
            <Array as="points">
              <mxPoint x="440" y="493" />
              <mxPoint x="440" y="190" />
            </Array>
          </mxGeometry>
        </mxCell>
        <mxCell id="PUIkpn1EFsI0aQIMFj-C-43" value="sensor&lt;br&gt;5v" style="triangle;whiteSpace=wrap;html=1;rotation=90;horizontal=0;fillColor=#67AB9F;" parent="1" vertex="1">
          <mxGeometry x="602.5" y="447" width="35" height="91.25" as="geometry" />
        </mxCell>
        <mxCell id="PUIkpn1EFsI0aQIMFj-C-44" value="plant" style="shape=cylinder3;whiteSpace=wrap;html=1;boundedLbl=1;backgroundOutline=1;size=15;fillColor=#CC6600;fontColor=#000000;strokeColor=#6F0000;" parent="1" vertex="1">
          <mxGeometry x="590" y="610.5" width="60" height="80" as="geometry" />
        </mxCell>
        <mxCell id="KXqegEyoODrQ_h53kKNx-60" style="edgeStyle=orthogonalEdgeStyle;rounded=0;orthogonalLoop=1;jettySize=auto;html=1;exitX=0;exitY=0.75;exitDx=0;exitDy=0;strokeColor=#FF0080;strokeWidth=1;entryX=0;entryY=0.75;entryDx=0;entryDy=0;" parent="1" target="PUIkpn1EFsI0aQIMFj-C-45" edge="1">
          <mxGeometry relative="1" as="geometry">
            <mxPoint x="350" y="220" as="sourcePoint" />
            <Array as="points">
              <mxPoint x="350" y="580" />
              <mxPoint x="597" y="580" />
            </Array>
          </mxGeometry>
        </mxCell>
        <mxCell id="PUIkpn1EFsI0aQIMFj-C-45" value="sensor&lt;br&gt;5v" style="triangle;whiteSpace=wrap;html=1;rotation=90;horizontal=0;fillColor=#67AB9F;" parent="1" vertex="1">
          <mxGeometry x="602.5" y="561" width="35" height="91.25" as="geometry" />
        </mxCell>
        <mxCell id="KXqegEyoODrQ_h53kKNx-40" style="edgeStyle=orthogonalEdgeStyle;rounded=0;orthogonalLoop=1;jettySize=auto;html=1;strokeColor=#000000;strokeWidth=1;" parent="1" source="PUIkpn1EFsI0aQIMFj-C-50" edge="1">
          <mxGeometry relative="1" as="geometry">
            <mxPoint x="370" y="150" as="targetPoint" />
            <Array as="points">
              <mxPoint x="30" y="541" />
              <mxPoint x="30" y="150" />
            </Array>
          </mxGeometry>
        </mxCell>
        <mxCell id="PUIkpn1EFsI0aQIMFj-C-50" value="gnd" style="rhombus;whiteSpace=wrap;html=1;" parent="1" vertex="1">
          <mxGeometry x="100" y="521" width="50" height="40" as="geometry" />
        </mxCell>
        <mxCell id="KXqegEyoODrQ_h53kKNx-41" style="edgeStyle=orthogonalEdgeStyle;rounded=0;orthogonalLoop=1;jettySize=auto;html=1;strokeColor=#FF0080;strokeWidth=1;" parent="1" target="PUIkpn1EFsI0aQIMFj-C-51" edge="1">
          <mxGeometry relative="1" as="geometry">
            <mxPoint x="350" y="170" as="sourcePoint" />
            <Array as="points">
              <mxPoint x="40" y="170" />
              <mxPoint x="40" y="796" />
            </Array>
          </mxGeometry>
        </mxCell>
        <mxCell id="PUIkpn1EFsI0aQIMFj-C-51" value="vcc" style="rhombus;whiteSpace=wrap;html=1;" parent="1" vertex="1">
          <mxGeometry x="100" y="776" width="50" height="40" as="geometry" />
        </mxCell>
        <mxCell id="PUIkpn1EFsI0aQIMFj-C-106" value="Relay board 5v" style="text;html=1;align=center;verticalAlign=middle;resizable=0;points=[];autosize=1;strokeColor=none;fillColor=none;" parent="1" vertex="1">
          <mxGeometry x="75" y="480" width="100" height="30" as="geometry" />
        </mxCell>
        <mxCell id="KXqegEyoODrQ_h53kKNx-47" style="edgeStyle=orthogonalEdgeStyle;rounded=0;orthogonalLoop=1;jettySize=auto;html=1;exitX=0;exitY=0;exitDx=0;exitDy=0;strokeColor=#000000;strokeWidth=1;" parent="1" source="PUIkpn1EFsI0aQIMFj-C-165" edge="1">
          <mxGeometry relative="1" as="geometry">
            <mxPoint x="660" y="220" as="targetPoint" />
            <Array as="points">
              <mxPoint x="709" y="490" />
              <mxPoint x="680" y="490" />
              <mxPoint x="680" y="310" />
              <mxPoint x="660" y="310" />
            </Array>
          </mxGeometry>
        </mxCell>
        <mxCell id="PUIkpn1EFsI0aQIMFj-C-165" value="solenoid&lt;br&gt;valve 12v" style="ellipse;whiteSpace=wrap;html=1;fillColor=#66FFFF;" parent="1" vertex="1">
          <mxGeometry x="700" y="521" width="60" height="37" as="geometry" />
        </mxCell>
        <mxCell id="KXqegEyoODrQ_h53kKNx-48" style="edgeStyle=orthogonalEdgeStyle;rounded=0;orthogonalLoop=1;jettySize=auto;html=1;exitX=0;exitY=0;exitDx=0;exitDy=0;strokeColor=#000000;strokeWidth=1;" parent="1" source="PUIkpn1EFsI0aQIMFj-C-166" edge="1">
          <mxGeometry relative="1" as="geometry">
            <mxPoint x="660" y="220" as="targetPoint" />
            <Array as="points">
              <mxPoint x="709" y="610" />
              <mxPoint x="680" y="610" />
              <mxPoint x="680" y="310" />
              <mxPoint x="660" y="310" />
            </Array>
          </mxGeometry>
        </mxCell>
        <mxCell id="PUIkpn1EFsI0aQIMFj-C-166" value="solenoid&lt;br&gt;valve 12v" style="ellipse;whiteSpace=wrap;html=1;fillColor=#66FFFF;" parent="1" vertex="1">
          <mxGeometry x="700" y="643" width="60" height="37" as="geometry" />
        </mxCell>
        <mxCell id="PUIkpn1EFsI0aQIMFj-C-168" value="" style="shape=link;html=1;rounded=0;exitX=1;exitY=0.5;exitDx=0;exitDy=0;exitPerimeter=0;entryX=0;entryY=0.5;entryDx=0;entryDy=0;" parent="1" source="PUIkpn1EFsI0aQIMFj-C-42" target="PUIkpn1EFsI0aQIMFj-C-165" edge="1">
          <mxGeometry width="100" relative="1" as="geometry">
            <mxPoint x="940" y="309.5" as="sourcePoint" />
            <mxPoint x="1040" y="309.5" as="targetPoint" />
          </mxGeometry>
        </mxCell>
        <mxCell id="PUIkpn1EFsI0aQIMFj-C-169" value="" style="shape=link;html=1;rounded=0;exitX=1;exitY=0.5;exitDx=0;exitDy=0;exitPerimeter=0;entryX=0;entryY=0.5;entryDx=0;entryDy=0;" parent="1" source="PUIkpn1EFsI0aQIMFj-C-44" target="PUIkpn1EFsI0aQIMFj-C-166" edge="1">
          <mxGeometry width="100" relative="1" as="geometry">
            <mxPoint x="950" y="319.5" as="sourcePoint" />
            <mxPoint x="1050" y="319.5" as="targetPoint" />
          </mxGeometry>
        </mxCell>
        <mxCell id="PUIkpn1EFsI0aQIMFj-C-172" value="" style="shape=link;html=1;rounded=0;exitX=1;exitY=0.5;exitDx=0;exitDy=0;exitPerimeter=0;entryX=0;entryY=0.5;entryDx=0;entryDy=0;" parent="1" source="PUIkpn1EFsI0aQIMFj-C-32" target="PUIkpn1EFsI0aQIMFj-C-10" edge="1">
          <mxGeometry width="100" relative="1" as="geometry">
            <mxPoint x="870" y="423.5" as="sourcePoint" />
            <mxPoint x="970" y="423.5" as="targetPoint" />
          </mxGeometry>
        </mxCell>
        <mxCell id="PUIkpn1EFsI0aQIMFj-C-171" value="" style="shape=link;html=1;rounded=0;entryX=0;entryY=0.5;entryDx=0;entryDy=0;" parent="1" target="PUIkpn1EFsI0aQIMFj-C-2" edge="1">
          <mxGeometry width="100" relative="1" as="geometry">
            <mxPoint x="880" y="570" as="sourcePoint" />
            <mxPoint x="910" y="740" as="targetPoint" />
            <Array as="points">
              <mxPoint x="970" y="570" />
              <mxPoint x="970" y="766" />
            </Array>
          </mxGeometry>
        </mxCell>
        <mxCell id="PUIkpn1EFsI0aQIMFj-C-173" value="" style="shape=link;html=1;rounded=0;" parent="1" edge="1">
          <mxGeometry width="100" relative="1" as="geometry">
            <mxPoint x="880" y="431.25" as="sourcePoint" />
            <mxPoint x="880" y="660" as="targetPoint" />
            <Array as="points" />
          </mxGeometry>
        </mxCell>
        <mxCell id="PUIkpn1EFsI0aQIMFj-C-174" value="" style="shape=link;html=1;rounded=0;exitX=1;exitY=0.5;exitDx=0;exitDy=0;" parent="1" source="PUIkpn1EFsI0aQIMFj-C-10" edge="1">
          <mxGeometry width="100" relative="1" as="geometry">
            <mxPoint x="810" y="400" as="sourcePoint" />
            <mxPoint x="880" y="433" as="targetPoint" />
          </mxGeometry>
        </mxCell>
        <mxCell id="PUIkpn1EFsI0aQIMFj-C-175" value="" style="shape=link;html=1;rounded=0;exitX=1;exitY=0.5;exitDx=0;exitDy=0;" parent="1" source="PUIkpn1EFsI0aQIMFj-C-166" edge="1">
          <mxGeometry width="100" relative="1" as="geometry">
            <mxPoint x="930" y="480" as="sourcePoint" />
            <mxPoint x="880" y="662" as="targetPoint" />
          </mxGeometry>
        </mxCell>
        <mxCell id="PUIkpn1EFsI0aQIMFj-C-176" value="" style="shape=link;html=1;rounded=0;exitX=1;exitY=0.5;exitDx=0;exitDy=0;" parent="1" source="PUIkpn1EFsI0aQIMFj-C-165" edge="1">
          <mxGeometry width="100" relative="1" as="geometry">
            <mxPoint x="940" y="440" as="sourcePoint" />
            <mxPoint x="880" y="540" as="targetPoint" />
          </mxGeometry>
        </mxCell>
        <mxCell id="PUIkpn1EFsI0aQIMFj-C-177" value="bucket&lt;br&gt;" style="text;html=1;align=center;verticalAlign=middle;resizable=0;points=[];autosize=1;strokeColor=none;fillColor=none;" parent="1" vertex="1">
          <mxGeometry x="1025" y="641" width="60" height="30" as="geometry" />
        </mxCell>
        <mxCell id="KXqegEyoODrQ_h53kKNx-1" value="" style="pointerEvents=1;fillColor=strokeColor;verticalLabelPosition=bottom;shadow=0;dashed=0;align=center;html=1;verticalAlign=top;shape=mxgraph.electrical.diodes.diode;" parent="1" vertex="1">
          <mxGeometry x="710" y="611" width="40" height="24" as="geometry" />
        </mxCell>
        <mxCell id="KXqegEyoODrQ_h53kKNx-3" value="" style="pointerEvents=1;fillColor=strokeColor;verticalLabelPosition=bottom;shadow=0;dashed=0;align=center;html=1;verticalAlign=top;shape=mxgraph.electrical.diodes.diode;" parent="1" vertex="1">
          <mxGeometry x="710" y="491" width="40" height="24" as="geometry" />
        </mxCell>
        <mxCell id="KXqegEyoODrQ_h53kKNx-4" value="" style="pointerEvents=1;fillColor=strokeColor;verticalLabelPosition=bottom;shadow=0;dashed=0;align=center;html=1;verticalAlign=top;shape=mxgraph.electrical.diodes.diode;" parent="1" vertex="1">
          <mxGeometry x="710" y="384" width="40" height="24" as="geometry" />
        </mxCell>
        <mxCell id="KXqegEyoODrQ_h53kKNx-9" value="" style="endArrow=none;html=1;rounded=0;strokeColor=#FF0000;strokeWidth=9;" parent="1" edge="1">
          <mxGeometry width="50" height="50" relative="1" as="geometry">
            <mxPoint x="680" y="220" as="sourcePoint" />
            <mxPoint x="680" y="-80" as="targetPoint" />
          </mxGeometry>
        </mxCell>
        <mxCell id="KXqegEyoODrQ_h53kKNx-13" value="" style="endArrow=none;html=1;rounded=0;strokeColor=#000000;strokeWidth=9;" parent="1" edge="1">
          <mxGeometry width="50" height="50" relative="1" as="geometry">
            <mxPoint x="660" y="220" as="sourcePoint" />
            <mxPoint x="660" y="-80" as="targetPoint" />
          </mxGeometry>
        </mxCell>
        <mxCell id="KXqegEyoODrQ_h53kKNx-17" value="" style="group" parent="1" vertex="1" connectable="0">
          <mxGeometry x="410" y="-30" width="215" height="250" as="geometry" />
        </mxCell>
        <mxCell id="KXqegEyoODrQ_h53kKNx-14" value="" style="rounded=0;whiteSpace=wrap;html=1;fillColor=#97D077;" parent="KXqegEyoODrQ_h53kKNx-17" vertex="1">
          <mxGeometry width="215" height="250" as="geometry" />
        </mxCell>
        <mxCell id="PUIkpn1EFsI0aQIMFj-C-66" value="vsys" style="rhombus;whiteSpace=wrap;html=1;" parent="KXqegEyoODrQ_h53kKNx-17" vertex="1">
          <mxGeometry x="14.51" y="70" width="40.97" height="40" as="geometry" />
        </mxCell>
        <mxCell id="PUIkpn1EFsI0aQIMFj-C-48" value="raspberry pi &lt;br&gt;pico w" style="shape=hexagon;perimeter=hexagonPerimeter2;whiteSpace=wrap;html=1;fixedSize=1;fillColor=#FFFFFF;" parent="KXqegEyoODrQ_h53kKNx-17" vertex="1">
          <mxGeometry x="57.5" y="86.63" width="105" height="76.75" as="geometry" />
        </mxCell>
        <mxCell id="PUIkpn1EFsI0aQIMFj-C-55" value="gpio" style="rhombus;whiteSpace=wrap;html=1;fillColor=#FF8000;" parent="KXqegEyoODrQ_h53kKNx-17" vertex="1">
          <mxGeometry x="85" y="200" width="50" height="40" as="geometry" />
        </mxCell>
        <mxCell id="Cj3IPJaoReeCgqhKKYie-5" value="gpio" style="rhombus;whiteSpace=wrap;html=1;fillColor=#FF8000;" parent="KXqegEyoODrQ_h53kKNx-17" vertex="1">
          <mxGeometry x="12.5" y="13.75" width="45" height="40" as="geometry" />
        </mxCell>
        <mxCell id="ZqX6bqMgEYGxVGtMa7wk-8" value="gnd" style="rhombus;whiteSpace=wrap;html=1;" parent="KXqegEyoODrQ_h53kKNx-17" vertex="1">
          <mxGeometry x="14.509999999999973" y="130" width="40.97" height="40" as="geometry" />
        </mxCell>
        <mxCell id="KXqegEyoODrQ_h53kKNx-18" value="" style="endArrow=none;html=1;rounded=0;strokeColor=#000000;strokeWidth=9;" parent="1" edge="1">
          <mxGeometry width="50" height="50" relative="1" as="geometry">
            <mxPoint x="370" y="220" as="sourcePoint" />
            <mxPoint x="370" y="-82.57" as="targetPoint" />
          </mxGeometry>
        </mxCell>
        <mxCell id="KXqegEyoODrQ_h53kKNx-19" value="" style="endArrow=none;html=1;rounded=0;strokeColor=#FF0080;strokeWidth=9;" parent="1" edge="1">
          <mxGeometry width="50" height="50" relative="1" as="geometry">
            <mxPoint x="350" y="220" as="sourcePoint" />
            <mxPoint x="350" y="-82.56" as="targetPoint" />
          </mxGeometry>
        </mxCell>
        <mxCell id="KXqegEyoODrQ_h53kKNx-23" value="" style="group" parent="1" vertex="1" connectable="0">
          <mxGeometry x="900" y="-15.130000000000003" width="230" height="150" as="geometry" />
        </mxCell>
        <mxCell id="KXqegEyoODrQ_h53kKNx-5" value="" style="rounded=0;whiteSpace=wrap;html=1;fillColor=#EA6B66;" parent="KXqegEyoODrQ_h53kKNx-23" vertex="1">
          <mxGeometry width="230" height="150" as="geometry" />
        </mxCell>
        <mxCell id="0tfDMwp1xF6EGkPO3yS6-1" value="12v 2a 25w power supply" style="whiteSpace=wrap;html=1;aspect=fixed;fillColor=#FFFFFF;" parent="KXqegEyoODrQ_h53kKNx-23" vertex="1">
          <mxGeometry x="71.45000000000005" y="30.000000000000007" width="80" height="80" as="geometry" />
        </mxCell>
        <mxCell id="0tfDMwp1xF6EGkPO3yS6-2" value="220v+" style="rhombus;whiteSpace=wrap;html=1;" parent="KXqegEyoODrQ_h53kKNx-23" vertex="1">
          <mxGeometry x="170" y="6.75" width="40" height="40" as="geometry" />
        </mxCell>
        <mxCell id="0tfDMwp1xF6EGkPO3yS6-3" value="gnd" style="rhombus;whiteSpace=wrap;html=1;" parent="KXqegEyoODrQ_h53kKNx-23" vertex="1">
          <mxGeometry x="170" y="103.5" width="40" height="40" as="geometry" />
        </mxCell>
        <mxCell id="0tfDMwp1xF6EGkPO3yS6-4" value="220v-" style="rhombus;whiteSpace=wrap;html=1;" parent="KXqegEyoODrQ_h53kKNx-23" vertex="1">
          <mxGeometry x="170" y="53.5" width="40" height="40" as="geometry" />
        </mxCell>
        <mxCell id="0tfDMwp1xF6EGkPO3yS6-11" value="12v+" style="rhombus;whiteSpace=wrap;html=1;" parent="KXqegEyoODrQ_h53kKNx-23" vertex="1">
          <mxGeometry x="20" y="84.87" width="40" height="40" as="geometry" />
        </mxCell>
        <mxCell id="0tfDMwp1xF6EGkPO3yS6-12" value="12v+" style="rhombus;whiteSpace=wrap;html=1;" parent="KXqegEyoODrQ_h53kKNx-23" vertex="1">
          <mxGeometry x="20" y="24.870000000000005" width="40" height="40" as="geometry" />
        </mxCell>
        <mxCell id="KXqegEyoODrQ_h53kKNx-26" value="" style="group" parent="1" vertex="1" connectable="0">
          <mxGeometry x="637.5" y="-460" width="160" height="170" as="geometry" />
        </mxCell>
        <mxCell id="KXqegEyoODrQ_h53kKNx-25" value="" style="rounded=0;whiteSpace=wrap;html=1;fillColor=#A680B8;" parent="KXqegEyoODrQ_h53kKNx-26" vertex="1">
          <mxGeometry width="160" height="170" as="geometry" />
        </mxCell>
        <mxCell id="ZqX6bqMgEYGxVGtMa7wk-1" value="dht11&lt;br&gt;temperature" style="whiteSpace=wrap;html=1;aspect=fixed;fillColor=#FFFFFF;" parent="KXqegEyoODrQ_h53kKNx-26" vertex="1">
          <mxGeometry x="40" y="20" width="80" height="80" as="geometry" />
        </mxCell>
        <mxCell id="ZqX6bqMgEYGxVGtMa7wk-2" value="vcc" style="rhombus;whiteSpace=wrap;html=1;" parent="KXqegEyoODrQ_h53kKNx-26" vertex="1">
          <mxGeometry x="18.539999999999964" y="120" width="40.97" height="40" as="geometry" />
        </mxCell>
        <mxCell id="ZqX6bqMgEYGxVGtMa7wk-3" value="gnd" style="rhombus;whiteSpace=wrap;html=1;" parent="KXqegEyoODrQ_h53kKNx-26" vertex="1">
          <mxGeometry x="59.510000000000105" y="120" width="40.97" height="40" as="geometry" />
        </mxCell>
        <mxCell id="ZqX6bqMgEYGxVGtMa7wk-4" value="data" style="rhombus;whiteSpace=wrap;html=1;" parent="KXqegEyoODrQ_h53kKNx-26" vertex="1">
          <mxGeometry x="100.48000000000002" y="120" width="40.97" height="40" as="geometry" />
        </mxCell>
        <mxCell id="KXqegEyoODrQ_h53kKNx-30" style="edgeStyle=orthogonalEdgeStyle;rounded=0;orthogonalLoop=1;jettySize=auto;html=1;strokeColor=#FF0000;strokeWidth=1;" parent="1" source="0tfDMwp1xF6EGkPO3yS6-12" edge="1">
          <mxGeometry relative="1" as="geometry">
            <mxPoint x="680" y="-80" as="targetPoint" />
            <Array as="points">
              <mxPoint x="850" y="30" />
              <mxPoint x="850" y="-150" />
              <mxPoint x="680" y="-150" />
            </Array>
          </mxGeometry>
        </mxCell>
        <mxCell id="KXqegEyoODrQ_h53kKNx-31" style="edgeStyle=orthogonalEdgeStyle;rounded=0;orthogonalLoop=1;jettySize=auto;html=1;strokeColor=#000000;strokeWidth=1;" parent="1" source="0tfDMwp1xF6EGkPO3yS6-11" edge="1">
          <mxGeometry relative="1" as="geometry">
            <mxPoint x="660" y="-80" as="targetPoint" />
            <Array as="points">
              <mxPoint x="830" y="90" />
              <mxPoint x="830" y="-130" />
              <mxPoint x="660" y="-130" />
            </Array>
          </mxGeometry>
        </mxCell>
        <mxCell id="KXqegEyoODrQ_h53kKNx-7" value="" style="rounded=0;whiteSpace=wrap;html=1;fillColor=#F19C99;" parent="1" vertex="1">
          <mxGeometry x="45" y="-190" width="190" height="230" as="geometry" />
        </mxCell>
        <mxCell id="PUIkpn1EFsI0aQIMFj-C-49" value="12v to 5v 5a converter" style="whiteSpace=wrap;html=1;aspect=fixed;fillColor=#FFFFFF;" parent="1" vertex="1">
          <mxGeometry x="70" y="-110" width="80" height="80" as="geometry" />
        </mxCell>
        <mxCell id="KXqegEyoODrQ_h53kKNx-36" style="edgeStyle=orthogonalEdgeStyle;rounded=0;orthogonalLoop=1;jettySize=auto;html=1;strokeColor=#FF0080;strokeWidth=1;" parent="1" source="PUIkpn1EFsI0aQIMFj-C-67" edge="1">
          <mxGeometry relative="1" as="geometry">
            <mxPoint x="350" y="-80" as="targetPoint" />
            <Array as="points">
              <mxPoint x="310" y="-45" />
              <mxPoint x="310" y="-90" />
              <mxPoint x="350" y="-90" />
            </Array>
          </mxGeometry>
        </mxCell>
        <mxCell id="PUIkpn1EFsI0aQIMFj-C-67" value="5v+" style="rhombus;whiteSpace=wrap;html=1;" parent="1" vertex="1">
          <mxGeometry x="180" y="-65.13000000000001" width="40" height="40" as="geometry" />
        </mxCell>
        <mxCell id="KXqegEyoODrQ_h53kKNx-37" style="edgeStyle=orthogonalEdgeStyle;rounded=0;orthogonalLoop=1;jettySize=auto;html=1;strokeColor=#000000;strokeWidth=1;" parent="1" source="PUIkpn1EFsI0aQIMFj-C-69" edge="1">
          <mxGeometry relative="1" as="geometry">
            <mxPoint x="370" y="-80" as="targetPoint" />
            <Array as="points">
              <mxPoint x="270" y="-5" />
              <mxPoint x="270" y="-100" />
              <mxPoint x="370" y="-100" />
            </Array>
          </mxGeometry>
        </mxCell>
        <mxCell id="PUIkpn1EFsI0aQIMFj-C-69" value="5v-" style="rhombus;whiteSpace=wrap;html=1;" parent="1" vertex="1">
          <mxGeometry x="180" y="-25.129999999999995" width="40" height="40" as="geometry" />
        </mxCell>
        <mxCell id="KXqegEyoODrQ_h53kKNx-34" style="edgeStyle=orthogonalEdgeStyle;rounded=0;orthogonalLoop=1;jettySize=auto;html=1;strokeColor=#FF0000;strokeWidth=1;" parent="1" target="0tfDMwp1xF6EGkPO3yS6-15" edge="1">
          <mxGeometry relative="1" as="geometry">
            <mxPoint x="680" y="-80" as="sourcePoint" />
            <Array as="points">
              <mxPoint x="680" y="-150" />
            </Array>
          </mxGeometry>
        </mxCell>
        <mxCell id="0tfDMwp1xF6EGkPO3yS6-15" value="12v+" style="rhombus;whiteSpace=wrap;html=1;" parent="1" vertex="1">
          <mxGeometry x="180" y="-167.56" width="40" height="40" as="geometry" />
        </mxCell>
        <mxCell id="KXqegEyoODrQ_h53kKNx-35" style="edgeStyle=orthogonalEdgeStyle;rounded=0;orthogonalLoop=1;jettySize=auto;html=1;strokeColor=#000000;strokeWidth=1;" parent="1" target="0tfDMwp1xF6EGkPO3yS6-16" edge="1">
          <mxGeometry relative="1" as="geometry">
            <mxPoint x="660" y="-80" as="sourcePoint" />
            <Array as="points">
              <mxPoint x="660" y="-130" />
              <mxPoint x="260" y="-130" />
              <mxPoint x="260" y="-108" />
            </Array>
          </mxGeometry>
        </mxCell>
        <mxCell id="0tfDMwp1xF6EGkPO3yS6-16" value="12v-" style="rhombus;whiteSpace=wrap;html=1;" parent="1" vertex="1">
          <mxGeometry x="180" y="-127.55999999999999" width="40" height="40" as="geometry" />
        </mxCell>
        <mxCell id="0tfDMwp1xF6EGkPO3yS6-59" style="edgeStyle=orthogonalEdgeStyle;rounded=0;orthogonalLoop=1;jettySize=auto;html=1;exitX=1;exitY=0.5;exitDx=0;exitDy=0;entryX=1;entryY=0.5;entryDx=0;entryDy=0;" parent="1" source="PUIkpn1EFsI0aQIMFj-C-49" target="PUIkpn1EFsI0aQIMFj-C-49" edge="1">
          <mxGeometry relative="1" as="geometry" />
        </mxCell>
        <mxCell id="KXqegEyoODrQ_h53kKNx-38" style="edgeStyle=orthogonalEdgeStyle;rounded=0;orthogonalLoop=1;jettySize=auto;html=1;strokeColor=#FF0080;strokeWidth=1;" parent="1" target="PUIkpn1EFsI0aQIMFj-C-66" edge="1">
          <mxGeometry relative="1" as="geometry">
            <mxPoint x="350" y="10" as="sourcePoint" />
          </mxGeometry>
        </mxCell>
        <mxCell id="KXqegEyoODrQ_h53kKNx-39" style="edgeStyle=orthogonalEdgeStyle;rounded=0;orthogonalLoop=1;jettySize=auto;html=1;strokeColor=#000000;strokeWidth=1;" parent="1" source="ZqX6bqMgEYGxVGtMa7wk-8" edge="1">
          <mxGeometry relative="1" as="geometry">
            <mxPoint x="370" y="70" as="targetPoint" />
          </mxGeometry>
        </mxCell>
        <mxCell id="KXqegEyoODrQ_h53kKNx-42" style="edgeStyle=orthogonalEdgeStyle;rounded=0;orthogonalLoop=1;jettySize=auto;html=1;strokeColor=#FF8000;strokeWidth=1;exitX=0;exitY=0.5;exitDx=0;exitDy=0;" parent="1" source="PUIkpn1EFsI0aQIMFj-C-21" target="PUIkpn1EFsI0aQIMFj-C-55" edge="1">
          <mxGeometry relative="1" as="geometry">
            <Array as="points">
              <mxPoint x="20" y="591" />
              <mxPoint x="20" y="240" />
              <mxPoint x="460" y="240" />
              <mxPoint x="460" y="140" />
            </Array>
          </mxGeometry>
        </mxCell>
        <mxCell id="KXqegEyoODrQ_h53kKNx-43" style="edgeStyle=orthogonalEdgeStyle;rounded=0;orthogonalLoop=1;jettySize=auto;html=1;strokeColor=#FF8000;strokeWidth=1;exitX=0;exitY=0.5;exitDx=0;exitDy=0;" parent="1" source="PUIkpn1EFsI0aQIMFj-C-22" target="PUIkpn1EFsI0aQIMFj-C-55" edge="1">
          <mxGeometry relative="1" as="geometry">
            <Array as="points">
              <mxPoint x="20" y="641" />
              <mxPoint x="20" y="240" />
              <mxPoint x="460" y="240" />
              <mxPoint x="460" y="140" />
            </Array>
          </mxGeometry>
        </mxCell>
        <mxCell id="KXqegEyoODrQ_h53kKNx-44" style="edgeStyle=orthogonalEdgeStyle;rounded=0;orthogonalLoop=1;jettySize=auto;html=1;strokeColor=#FF8000;strokeWidth=1;exitX=0;exitY=0.5;exitDx=0;exitDy=0;" parent="1" source="PUIkpn1EFsI0aQIMFj-C-23" target="PUIkpn1EFsI0aQIMFj-C-55" edge="1">
          <mxGeometry relative="1" as="geometry">
            <Array as="points">
              <mxPoint x="20" y="691" />
              <mxPoint x="20" y="240" />
              <mxPoint x="460" y="240" />
              <mxPoint x="460" y="140" />
            </Array>
          </mxGeometry>
        </mxCell>
        <mxCell id="KXqegEyoODrQ_h53kKNx-45" style="edgeStyle=orthogonalEdgeStyle;rounded=0;orthogonalLoop=1;jettySize=auto;html=1;strokeColor=#FF8000;strokeWidth=1;exitX=0;exitY=0.5;exitDx=0;exitDy=0;" parent="1" source="PUIkpn1EFsI0aQIMFj-C-24" target="PUIkpn1EFsI0aQIMFj-C-55" edge="1">
          <mxGeometry relative="1" as="geometry">
            <Array as="points">
              <mxPoint x="20" y="746" />
              <mxPoint x="20" y="240" />
              <mxPoint x="460" y="240" />
              <mxPoint x="460" y="140" />
            </Array>
          </mxGeometry>
        </mxCell>
        <mxCell id="KXqegEyoODrQ_h53kKNx-55" style="edgeStyle=orthogonalEdgeStyle;rounded=0;orthogonalLoop=1;jettySize=auto;html=1;entryX=0;entryY=0.5;entryDx=0;entryDy=0;strokeColor=#FF8000;strokeWidth=1;" parent="1" source="PUIkpn1EFsI0aQIMFj-C-55" target="PUIkpn1EFsI0aQIMFj-C-45" edge="1">
          <mxGeometry relative="1" as="geometry">
            <Array as="points">
              <mxPoint x="520" y="570" />
              <mxPoint x="620" y="570" />
            </Array>
          </mxGeometry>
        </mxCell>
        <mxCell id="KXqegEyoODrQ_h53kKNx-56" style="edgeStyle=orthogonalEdgeStyle;rounded=0;orthogonalLoop=1;jettySize=auto;html=1;entryX=0;entryY=0.5;entryDx=0;entryDy=0;strokeColor=#FF8000;strokeWidth=1;" parent="1" source="PUIkpn1EFsI0aQIMFj-C-55" target="PUIkpn1EFsI0aQIMFj-C-43" edge="1">
          <mxGeometry relative="1" as="geometry">
            <Array as="points">
              <mxPoint x="520" y="460" />
              <mxPoint x="620" y="460" />
            </Array>
          </mxGeometry>
        </mxCell>
        <mxCell id="KXqegEyoODrQ_h53kKNx-57" style="edgeStyle=orthogonalEdgeStyle;rounded=0;orthogonalLoop=1;jettySize=auto;html=1;entryX=0;entryY=0.5;entryDx=0;entryDy=0;strokeColor=#FF8000;strokeWidth=1;" parent="1" source="PUIkpn1EFsI0aQIMFj-C-55" target="PUIkpn1EFsI0aQIMFj-C-33" edge="1">
          <mxGeometry relative="1" as="geometry">
            <Array as="points">
              <mxPoint x="520" y="350" />
              <mxPoint x="620" y="350" />
            </Array>
          </mxGeometry>
        </mxCell>
        <mxCell id="KXqegEyoODrQ_h53kKNx-69" style="edgeStyle=orthogonalEdgeStyle;rounded=0;orthogonalLoop=1;jettySize=auto;html=1;entryX=0.5;entryY=0;entryDx=0;entryDy=0;strokeColor=#000000;strokeWidth=1;" parent="1" source="ZqX6bqMgEYGxVGtMa7wk-2" target="Cj3IPJaoReeCgqhKKYie-3" edge="1">
          <mxGeometry relative="1" as="geometry">
            <Array as="points">
              <mxPoint x="677" y="-200" />
              <mxPoint x="518" y="-200" />
            </Array>
          </mxGeometry>
        </mxCell>
        <mxCell id="KXqegEyoODrQ_h53kKNx-70" style="edgeStyle=orthogonalEdgeStyle;rounded=0;orthogonalLoop=1;jettySize=auto;html=1;strokeColor=#000000;strokeWidth=1;entryX=0.5;entryY=0;entryDx=0;entryDy=0;" parent="1" source="ZqX6bqMgEYGxVGtMa7wk-3" target="PUIkpn1EFsI0aQIMFj-C-65" edge="1">
          <mxGeometry relative="1" as="geometry">
            <mxPoint x="710" y="-200" as="targetPoint" />
            <Array as="points">
              <mxPoint x="718" y="-240" />
              <mxPoint x="585" y="-240" />
            </Array>
          </mxGeometry>
        </mxCell>
        <mxCell id="KXqegEyoODrQ_h53kKNx-71" style="edgeStyle=orthogonalEdgeStyle;rounded=0;orthogonalLoop=1;jettySize=auto;html=1;entryX=0.5;entryY=0;entryDx=0;entryDy=0;strokeColor=#000000;strokeWidth=1;" parent="1" source="ZqX6bqMgEYGxVGtMa7wk-4" target="Cj3IPJaoReeCgqhKKYie-5" edge="1">
          <mxGeometry relative="1" as="geometry">
            <Array as="points">
              <mxPoint x="759" y="-180" />
              <mxPoint x="445" y="-180" />
            </Array>
          </mxGeometry>
        </mxCell>
        <mxCell id="qP6vevdzCkfTLDb1XTiZ-3" value="12v" style="text;html=1;align=center;verticalAlign=middle;resizable=0;points=[];autosize=1;strokeColor=none;fillColor=none;" parent="1" vertex="1">
          <mxGeometry x="680" y="-110" width="40" height="30" as="geometry" />
        </mxCell>
        <mxCell id="qP6vevdzCkfTLDb1XTiZ-4" value="5v" style="text;html=1;align=center;verticalAlign=middle;resizable=0;points=[];autosize=1;strokeColor=none;fillColor=none;" parent="1" vertex="1">
          <mxGeometry x="340" y="-122.56" width="40" height="30" as="geometry" />
        </mxCell>
        <mxCell id="f1vs3V-lbIXkLcA016Jo-1" value="" style="pointerEvents=1;fillColor=strokeColor;verticalLabelPosition=bottom;shadow=0;dashed=0;align=center;html=1;verticalAlign=top;shape=mxgraph.electrical.diodes.diode;rotation=90;" parent="1" vertex="1">
          <mxGeometry x="890" y="760" width="40" height="24" as="geometry" />
        </mxCell>
        <mxCell id="EcG7HWtOZkrAjrBqlnBk-1" value="" style="rounded=0;whiteSpace=wrap;html=1;fillColor=#dae8fc;strokeColor=#6c8ebf;" parent="1" vertex="1">
          <mxGeometry x="120" y="-440" width="190" height="230" as="geometry" />
        </mxCell>
        <mxCell id="EcG7HWtOZkrAjrBqlnBk-2" value="5v to 3.3v 0.8A converter" style="whiteSpace=wrap;html=1;aspect=fixed;fillColor=#FFFFFF;" parent="1" vertex="1">
          <mxGeometry x="145" y="-360" width="80" height="80" as="geometry" />
        </mxCell>
        <mxCell id="EcG7HWtOZkrAjrBqlnBk-10" style="edgeStyle=orthogonalEdgeStyle;rounded=0;orthogonalLoop=1;jettySize=auto;html=1;" parent="1" source="EcG7HWtOZkrAjrBqlnBk-3" edge="1">
          <mxGeometry relative="1" as="geometry">
            <mxPoint x="350" y="-80" as="targetPoint" />
          </mxGeometry>
        </mxCell>
        <mxCell id="EcG7HWtOZkrAjrBqlnBk-3" value="5v+" style="rhombus;whiteSpace=wrap;html=1;" parent="1" vertex="1">
          <mxGeometry x="255" y="-315.13" width="40" height="40" as="geometry" />
        </mxCell>
        <mxCell id="EcG7HWtOZkrAjrBqlnBk-11" style="edgeStyle=orthogonalEdgeStyle;rounded=0;orthogonalLoop=1;jettySize=auto;html=1;" parent="1" source="EcG7HWtOZkrAjrBqlnBk-4" edge="1">
          <mxGeometry relative="1" as="geometry">
            <mxPoint x="370" y="-80" as="targetPoint" />
          </mxGeometry>
        </mxCell>
        <mxCell id="EcG7HWtOZkrAjrBqlnBk-4" value="5v-" style="rhombus;whiteSpace=wrap;html=1;" parent="1" vertex="1">
          <mxGeometry x="255" y="-275.13" width="40" height="40" as="geometry" />
        </mxCell>
        <mxCell id="EcG7HWtOZkrAjrBqlnBk-8" style="edgeStyle=orthogonalEdgeStyle;rounded=0;orthogonalLoop=1;jettySize=auto;html=1;entryX=0;entryY=0.5;entryDx=0;entryDy=0;" parent="1" source="EcG7HWtOZkrAjrBqlnBk-5" target="Cj3IPJaoReeCgqhKKYie-3" edge="1">
          <mxGeometry relative="1" as="geometry" />
        </mxCell>
        <mxCell id="EcG7HWtOZkrAjrBqlnBk-5" value="3.3v+" style="rhombus;whiteSpace=wrap;html=1;" parent="1" vertex="1">
          <mxGeometry x="255" y="-417.56" width="40" height="40" as="geometry" />
        </mxCell>
        <mxCell id="EcG7HWtOZkrAjrBqlnBk-9" style="edgeStyle=orthogonalEdgeStyle;rounded=0;orthogonalLoop=1;jettySize=auto;html=1;entryX=0;entryY=0.5;entryDx=0;entryDy=0;" parent="1" source="EcG7HWtOZkrAjrBqlnBk-6" target="PUIkpn1EFsI0aQIMFj-C-65" edge="1">
          <mxGeometry relative="1" as="geometry">
            <Array as="points">
              <mxPoint x="550" y="-358" />
              <mxPoint x="550" y="-60" />
            </Array>
          </mxGeometry>
        </mxCell>
        <mxCell id="EcG7HWtOZkrAjrBqlnBk-6" value="3.3v-" style="rhombus;whiteSpace=wrap;html=1;" parent="1" vertex="1">
          <mxGeometry x="255" y="-377.56" width="40" height="40" as="geometry" />
        </mxCell>
        <mxCell id="EcG7HWtOZkrAjrBqlnBk-7" style="edgeStyle=orthogonalEdgeStyle;rounded=0;orthogonalLoop=1;jettySize=auto;html=1;exitX=1;exitY=0.5;exitDx=0;exitDy=0;entryX=1;entryY=0.5;entryDx=0;entryDy=0;" parent="1" source="EcG7HWtOZkrAjrBqlnBk-2" target="EcG7HWtOZkrAjrBqlnBk-2" edge="1">
          <mxGeometry relative="1" as="geometry" />
        </mxCell>
        <mxCell id="KXqegEyoODrQ_h53kKNx-63" style="edgeStyle=orthogonalEdgeStyle;rounded=0;orthogonalLoop=1;jettySize=auto;html=1;exitX=0.5;exitY=1;exitDx=0;exitDy=0;strokeColor=#000000;strokeWidth=1;" parent="1" source="PUIkpn1EFsI0aQIMFj-C-45" edge="1">
          <mxGeometry relative="1" as="geometry">
            <mxPoint x="370" y="190" as="targetPoint" />
            <Array as="points">
              <mxPoint x="440" y="607" />
              <mxPoint x="440" y="190" />
            </Array>
          </mxGeometry>
        </mxCell>
        <mxCell id="Cj3IPJaoReeCgqhKKYie-3" value="3.3v" style="rhombus;whiteSpace=wrap;html=1;" parent="1" vertex="1">
          <mxGeometry x="497.02" y="-80" width="40.97" height="40" as="geometry" />
        </mxCell>
        <mxCell id="PUIkpn1EFsI0aQIMFj-C-65" value="gnd" style="rhombus;whiteSpace=wrap;html=1;" parent="1" vertex="1">
          <mxGeometry x="562" y="-80" width="45" height="40" as="geometry" />
        </mxCell>
      </root>
    </mxGraphModel>
  </diagram>
</mxfile>
